# Blender v2.79 (sub 0) OBJ File: ''
# www.blender.org
mtllib arrow.mtl
o Cylinder
v 0.053904 -0.126265 -0.130137
v 0.000000 0.219968 -0.136578
v 0.000000 -0.126265 -0.140859
v 0.099602 -0.126265 -0.099602
v 0.052266 0.219968 -0.126182
v 0.130137 -0.126265 -0.053904
v 0.096575 0.219968 -0.096575
v 0.140859 -0.126265 -0.000000
v 0.126182 0.219968 -0.052266
v 0.130137 -0.126265 0.053904
v 0.136578 0.219968 0.000000
v 0.099602 -0.126265 0.099602
v 0.126182 0.219968 0.052266
v 0.053904 -0.126265 0.130137
v 0.096575 0.219968 0.096575
v 0.000000 -0.126265 0.140859
v 0.052266 0.219968 0.126182
v -0.053904 -0.126265 0.130137
v 0.000000 0.219968 0.136578
v -0.099602 -0.126265 0.099602
v -0.052266 0.219968 0.126182
v -0.130137 -0.126265 0.053904
v -0.096575 0.219968 0.096575
v -0.140859 -0.126265 -0.000000
v -0.126182 0.219968 0.052266
v -0.130137 -0.126265 -0.053904
v -0.136578 0.219968 0.000000
v -0.099602 -0.126265 -0.099602
v -0.126182 0.219968 -0.052266
v -0.052266 0.219968 -0.126182
v -0.096575 0.219968 -0.096575
v -0.053904 -0.126265 -0.130137
v -0.082778 -0.684742 0.199844
v 0.199843 -0.684742 0.082778
v 0.082778 -0.684742 -0.199843
v 0.152954 -0.684742 -0.152954
v 0.064485 -0.434741 -0.155680
v 0.000000 -0.434741 -0.168507
v 0.000000 0.215809 -0.397588
v 0.152150 0.215809 -0.367324
v 0.000000 1.010985 0.000000
v 0.000000 -0.684742 -0.216309
v 0.119152 -0.434741 -0.119152
v 0.281137 0.215809 -0.281137
v 0.216309 -0.684742 -0.000000
v 0.155680 -0.434741 -0.064485
v 0.199843 -0.684742 -0.082778
v 0.367324 0.215809 -0.152150
v 0.155680 -0.434741 0.064485
v 0.168507 -0.434741 -0.000000
v 0.397588 0.215809 0.000000
v 0.152954 -0.684742 0.152954
v 0.367324 0.215809 0.152150
v 0.082778 -0.684742 0.199843
v 0.119152 -0.434741 0.119152
v 0.281137 0.215809 0.281137
v 0.000000 -0.684742 0.216309
v 0.064485 -0.434741 0.155680
v 0.152150 0.215809 0.367324
v -0.064485 -0.434741 0.155680
v 0.000000 -0.434741 0.168507
v 0.000000 0.215809 0.397588
v -0.119152 -0.434741 0.119152
v -0.152150 0.215809 0.367324
v -0.199843 -0.684742 0.082778
v -0.152954 -0.684742 0.152954
v -0.281137 0.215809 0.281137
v -0.216309 -0.684742 -0.000000
v -0.155680 -0.434741 0.064485
v -0.367324 0.215809 0.152150
v -0.199843 -0.684742 -0.082778
v -0.168507 -0.434741 -0.000000
v -0.397588 0.215809 0.000000
v -0.152954 -0.684742 -0.152954
v -0.155680 -0.434741 -0.064485
v -0.367324 0.215809 -0.152151
v -0.064485 -0.434741 -0.155680
v -0.119152 -0.434741 -0.119152
v -0.281137 0.215809 -0.281137
v -0.152150 0.215809 -0.367324
v -0.082778 -0.684742 -0.199844
vn 0.1951 0.0121 -0.9807
vn 0.5555 0.0121 -0.8314
vn 0.8314 0.0121 -0.5555
vn 0.9807 0.0121 -0.1951
vn 0.9807 0.0121 0.1951
vn 0.8314 0.0121 0.5555
vn 0.5555 0.0121 0.8314
vn 0.1951 0.0121 0.9807
vn -0.1951 0.0121 0.9807
vn -0.5555 0.0121 0.8314
vn -0.8314 0.0121 0.5555
vn -0.9807 0.0121 0.1951
vn -0.9807 0.0121 -0.1951
vn -0.8314 0.0121 -0.5555
vn 0.0000 1.0000 0.0000
vn -0.5555 0.0121 -0.8314
vn -0.1951 0.0121 -0.9807
vn 0.0000 -1.0000 -0.0000
vn 0.5460 0.1843 -0.8172
vn 0.5461 0.1843 -0.8172
vn 0.1943 0.0876 -0.9770
vn 0.1752 0.4403 -0.8806
vn 0.1918 0.1843 -0.9640
vn 0.5534 0.0876 -0.8283
vn 0.4988 0.4403 -0.7465
vn 0.9640 0.1843 -0.1918
vn 0.8283 0.0876 -0.5534
vn 0.7465 0.4403 -0.4988
vn 0.9640 0.1843 0.1918
vn 0.9640 0.1843 0.1917
vn 0.9770 0.0876 -0.1943
vn 0.8806 0.4403 -0.1752
vn 0.8172 0.1843 0.5460
vn 0.8172 0.1843 0.5461
vn 0.9770 0.0876 0.1943
vn 0.8806 0.4403 0.1752
vn 0.5460 0.1843 0.8172
vn 0.5461 0.1843 0.8172
vn 0.8283 0.0876 0.5534
vn 0.7465 0.4403 0.4988
vn 0.1918 0.1843 0.9640
vn 0.5534 0.0876 0.8283
vn 0.4988 0.4403 0.7465
vn -0.1917 0.1843 0.9640
vn 0.1943 0.0876 0.9770
vn 0.1752 0.4403 0.8806
vn -0.5461 0.1843 0.8172
vn -0.1943 0.0876 0.9770
vn -0.1752 0.4403 0.8806
vn -0.8172 0.1843 0.5460
vn -0.8172 0.1843 0.5461
vn -0.5534 0.0876 0.8283
vn -0.4988 0.4403 0.7465
vn -0.9640 0.1843 0.1918
vn -0.8283 0.0876 0.5534
vn -0.7465 0.4403 0.4988
vn -0.9640 0.1843 -0.1918
vn -0.9770 0.0876 0.1943
vn -0.8806 0.4403 0.1752
vn -0.8172 0.1843 -0.5460
vn -0.8172 0.1843 -0.5461
vn -0.9770 0.0876 -0.1943
vn -0.8806 0.4403 -0.1752
vn -0.5461 0.1843 -0.8172
vn -0.8283 0.0876 -0.5534
vn -0.7465 0.4403 -0.4988
vn -0.5534 0.0876 -0.8283
vn -0.1943 0.0876 -0.9770
vn -0.4988 0.4403 -0.7465
vn 0.8172 0.1843 -0.5460
vn 0.8172 0.1843 -0.5461
vn -0.1917 0.1843 -0.9640
vn -0.1752 0.4403 -0.8806
vn 0.1917 0.1843 -0.9640
vn 0.9640 0.1843 -0.1917
vn 0.1917 0.1843 0.9640
vn -0.9640 0.1843 0.1917
vn -0.9640 0.1843 -0.1917
usemtl Arrow
s 1
f 1//1 3//1 2//1
f 4//2 1//2 5//2
f 6//3 4//3 7//3
f 8//4 6//4 9//4
f 10//5 8//5 11//5
f 12//6 10//6 13//6
f 14//7 12//7 15//7
f 16//8 14//8 17//8
f 18//9 16//9 19//9
f 20//10 18//10 21//10
f 22//11 20//11 23//11
f 24//12 22//12 25//12
f 26//13 24//13 27//13
f 28//14 26//14 29//14
f 2//15 19//15 11//15
f 28//16 31//16 30//16
f 3//17 32//17 30//17
f 33//18 35//18 34//18
f 36//19 35//19 37//20
f 37//21 38//21 3//21
f 39//22 41//22 40//22
f 35//23 42//23 38//23
f 43//24 37//24 1//24
f 40//25 41//25 44//25
f 45//26 47//26 46//26
f 46//27 43//27 4//27
f 44//28 41//28 48//28
f 45//29 50//30 49//29
f 50//31 46//31 6//31
f 48//32 41//32 51//32
f 52//33 34//33 49//34
f 49//35 50//35 8//35
f 51//36 41//36 53//36
f 54//37 52//37 55//38
f 55//39 49//39 10//39
f 53//40 41//40 56//40
f 57//41 54//41 58//41
f 58//42 55//42 12//42
f 56//43 41//43 59//43
f 57//44 61//44 60//44
f 61//45 58//45 14//45
f 59//46 41//46 62//46
f 33//47 60//47 63//47
f 60//48 61//48 16//48
f 62//49 41//49 64//49
f 65//50 66//50 63//51
f 63//52 60//52 18//52
f 64//53 41//53 67//53
f 68//54 65//54 69//54
f 69//55 63//55 20//55
f 67//56 41//56 70//56
f 71//57 68//57 72//57
f 72//58 69//58 22//58
f 70//59 41//59 73//59
f 74//60 71//60 75//61
f 75//62 72//62 24//62
f 73//63 41//63 76//63
f 74//64 78//64 77//64
f 78//65 75//65 26//65
f 76//66 41//66 79//66
f 77//67 78//67 28//67
f 38//68 77//68 32//68
f 79//69 41//69 80//69
f 47//70 36//70 43//71
f 42//72 81//72 77//72
f 80//73 41//73 39//73
f 40//18 64//18 76//18
f 1//1 2//1 5//1
f 4//2 5//2 7//2
f 6//3 7//3 9//3
f 8//4 9//4 11//4
f 10//5 11//5 13//5
f 12//6 13//6 15//6
f 14//7 15//7 17//7
f 16//8 17//8 19//8
f 18//9 19//9 21//9
f 20//10 21//10 23//10
f 22//11 23//11 25//11
f 24//12 25//12 27//12
f 26//13 27//13 29//13
f 28//14 29//14 31//14
f 2//15 7//15 5//15
f 7//15 11//15 9//15
f 11//15 15//15 13//15
f 15//15 19//15 17//15
f 19//15 23//15 21//15
f 23//15 27//15 25//15
f 27//15 31//15 29//15
f 31//15 2//15 30//15
f 2//15 11//15 7//15
f 11//15 19//15 15//15
f 19//15 27//15 23//15
f 27//15 19//15 31//15
f 31//15 19//15 2//15
f 28//16 30//16 32//16
f 3//17 30//17 2//17
f 35//18 81//18 42//18
f 81//18 71//18 74//18
f 71//18 65//18 68//18
f 65//18 33//18 66//18
f 33//18 34//18 57//18
f 57//18 34//18 54//18
f 54//18 34//18 52//18
f 34//18 35//18 45//18
f 45//18 35//18 47//18
f 47//18 35//18 36//18
f 35//18 71//18 81//18
f 71//18 33//18 65//18
f 35//18 33//18 71//18
f 36//19 37//20 43//20
f 37//21 3//21 1//21
f 35//23 38//23 37//74
f 43//24 1//24 4//24
f 45//26 46//26 50//75
f 46//27 4//27 6//27
f 45//29 49//29 34//29
f 50//31 6//31 8//31
f 52//33 49//34 55//34
f 49//35 8//35 10//35
f 54//37 55//38 58//38
f 55//39 10//39 12//39
f 57//41 58//41 61//76
f 58//42 12//42 14//42
f 57//44 60//44 33//44
f 61//45 14//45 16//45
f 33//47 63//47 66//47
f 60//48 16//48 18//48
f 65//50 63//51 69//51
f 63//52 18//52 20//52
f 68//54 69//54 72//77
f 69//55 20//55 22//55
f 71//57 72//57 75//78
f 72//58 22//58 24//58
f 74//60 75//61 78//61
f 75//62 24//62 26//62
f 74//64 77//64 81//64
f 78//65 26//65 28//65
f 77//67 28//67 32//67
f 38//68 32//68 3//68
f 47//70 43//71 46//71
f 42//72 77//72 38//72
f 40//18 76//18 39//18
f 39//18 76//18 80//18
f 80//18 76//18 79//18
f 76//18 64//18 73//18
f 73//18 64//18 70//18
f 70//18 64//18 67//18
f 64//18 59//18 62//18
f 59//18 53//18 56//18
f 53//18 48//18 51//18
f 48//18 40//18 44//18
f 64//18 40//18 59//18
f 59//18 40//18 53//18
f 53//18 40//18 48//18
