# Blender v2.79 (sub 0) OBJ File: 'fruits.blend'
# www.blender.org
mtllib kiwi.mtl
o kiwi_cutted.001_Cube.002
v 0.297714 -0.574226 -0.479074
v 0.487413 -0.192184 -0.611614
v 0.702503 -0.199400 -0.316329
v 0.512804 -0.581441 -0.183789
v -0.039098 -0.760235 -0.274119
v 0.220262 -0.768935 0.081941
v 0.148074 -0.034689 -0.736049
v -0.063111 -0.460003 -0.588496
v 0.459234 0.243373 -0.622297
v 0.718594 0.234673 -0.266237
v 0.516657 -0.479452 0.207434
v 0.727842 -0.054138 0.059881
v 0.229908 0.775550 0.188814
v -0.710997 -0.070599 -0.214879
v -0.370242 -0.433114 0.608131
v -0.086202 0.786154 -0.245154
v -0.686351 -0.422510 0.174164
v -0.002654 -0.094361 0.757563
v 0.254553 0.423638 0.577856
v -0.453790 0.447400 -0.394586
v 0.388381 -0.400146 -0.601138
v 0.636044 -0.177385 -0.494906
v 0.658008 -0.409191 -0.230982
v 0.410337 -0.631946 -0.337207
v -0.307138 -0.675177 -0.111044
v 0.076515 -0.815233 -0.087033
v -0.004982 -0.685313 0.303769
v -0.084132 0.157406 -0.654074
v 0.021893 -0.245757 -0.687904
v -0.329834 -0.337422 -0.482405
v 0.267557 0.482222 -0.512576
v 0.569713 0.472086 -0.097764
v 0.618994 0.277287 -0.466057
v 0.640409 -0.266506 0.161221
v 0.591896 0.134728 0.274005
v 0.346194 -0.360100 0.445674
v 0.133597 -0.519254 -0.579091
v 0.318425 -0.147021 -0.708228
v 0.518142 0.042186 -0.633205
v 0.738922 0.034779 -0.330109
v 0.746389 -0.161378 -0.120701
v 0.561561 -0.533610 0.008437
v 0.362495 -0.723321 -0.067104
v 0.141715 -0.715915 -0.370200
v 0.746843 0.115677 -0.083762
v -0.083981 -0.628372 -0.443366
v 0.293028 0.130901 -0.706778
v 0.369833 -0.643596 0.179650
v -0.603407 0.189106 -0.333581
v 0.096987 0.831469 -0.045731
v -0.177814 -0.296041 0.727092
v 0.146963 0.163934 0.696558
v 0.282136 0.630270 0.405730
v -0.553430 -0.478430 0.408708
v -0.738580 -0.277230 -0.042752
v -0.278630 0.649081 -0.364114
v 0.563096 -0.435531 -0.447791
v -0.169591 -0.737705 0.104770
v -0.227867 -0.089163 -0.596487
v 0.453841 0.517849 -0.330815
v 0.489539 -0.113229 0.388398
v 0.226510 -0.344929 -0.677477
v 0.669367 0.049799 -0.512645
v 0.685304 -0.360320 -0.047625
v 0.262158 -0.770294 -0.228133
v 0.615334 0.334660 0.111381
v -0.358946 -0.532966 -0.315269
v 0.080769 0.352592 -0.622493
v 0.175620 -0.550898 0.418604
v 0.441434 -0.646256 0.040700
v 0.759841 -0.005004 -0.181767
v 0.065882 -0.633658 -0.474873
v 0.384290 0.007594 -0.697340
v 0.441830 -0.500875 -0.463714
v 0.529538 -0.324237 -0.524994
v 0.629280 -0.327583 -0.388065
v 0.541572 -0.504221 -0.326785
v 0.484588 -0.420928 -0.520497
v 0.599243 -0.318048 -0.471499
v 0.609250 -0.425109 -0.349355
v 0.494887 -0.528215 -0.398586
v 0.037213 0.904271 0.333873
v -0.879856 0.074002 -0.062804
v -0.549055 -0.279653 0.743380
v -0.271920 0.914641 -0.090517
v -0.858188 -0.269282 0.318990
v -0.187670 0.050782 0.887456
v 0.063784 0.557195 0.711768
v -0.628401 0.580415 -0.238492
v -0.774695 0.327687 -0.179501
v -0.095066 0.961210 0.106344
v -0.358725 -0.146859 0.857245
v -0.040807 0.303068 0.828011
v 0.090870 0.759258 0.543141
v -0.731991 -0.321517 0.551356
v -0.906392 -0.128488 0.105386
v -0.456796 0.777630 -0.208718
v -0.008212 0.844469 0.333014
v -0.344658 -0.158459 0.847125
v 0.105742 0.749229 0.532456
v -0.893343 -0.140053 0.093867
v -0.442942 0.767635 -0.220801
v 0.052196 0.894262 0.322594
v -0.866726 0.062758 -0.074629
v -0.535151 -0.291585 0.732864
v -0.257479 0.904651 -0.102541
v -0.844826 -0.281197 0.307729
v -0.173284 0.039496 0.877356
v 0.078617 0.546810 0.701356
v -0.614824 0.570072 -0.250630
v -0.761376 0.316911 -0.191481
v -0.080133 0.951122 0.094519
v -0.026206 0.292250 0.817790
v -0.718107 -0.333718 0.540264
v -0.737510 0.326551 -0.128125
v -0.606101 0.553564 -0.181115
v 0.015656 0.532707 0.672460
v -0.210214 0.077820 0.830272
v -0.812508 -0.209679 0.319646
v -0.285891 0.853784 -0.048195
v -0.534829 -0.218993 0.700855
v -0.831971 0.098677 -0.023302
v 0.039986 0.714211 0.520989
v -0.078293 0.304437 0.776875
v -0.363864 -0.099711 0.803134
v -0.127031 0.895615 0.128636
v -0.413091 0.319508 0.328502
v -0.451956 0.730714 -0.154370
v -0.855807 -0.083209 0.127775
v -0.699151 -0.256598 0.528369
vt 0.939890 0.933886
vt 0.915451 0.899572
vt 0.938973 0.888736
vt 0.331859 0.671944
vt 0.278393 0.739255
vt 0.281156 0.652156
vt 0.244098 0.711761
vt 0.233300 0.649218
vt 0.272265 0.565155
vt 0.230865 1.000000
vt 0.257871 0.961431
vt 0.263970 0.999140
vt 0.876099 0.943821
vt 0.840241 0.871619
vt 0.887544 0.859862
vt 0.852945 0.812778
vt 0.887669 0.781144
vt 0.938446 0.836554
vt 0.997036 0.759844
vt 0.971898 0.716824
vt 0.998634 0.712471
vt 0.232437 0.902672
vt 0.294895 0.837988
vt 0.289459 0.916817
vt 0.337368 0.863110
vt 0.349317 0.919665
vt 0.302961 0.998466
vt 0.336468 0.569157
vt 0.310674 0.607393
vt 0.306573 0.567119
vt 0.925275 0.751032
vt 0.883012 0.659429
vt 0.942505 0.666537
vt 0.897656 0.599347
vt 0.941003 0.579151
vt 1.000000 0.656962
vt 0.019805 0.566451
vt 0.077851 0.683055
vt 0.004494 0.685468
vt 0.800288 0.567106
vt 0.768424 0.689721
vt 0.749202 0.573777
vt 0.731673 0.526786
vt 0.758689 0.509642
vt 0.336468 0.826089
vt 0.273517 0.800266
vt 0.151096 0.571363
vt 0.082627 0.565155
vt 0.992925 0.502963
vt 0.925440 0.516426
vt 0.872000 0.565292
vt 0.208050 0.575763
vt 0.157450 0.691190
vt 0.842565 0.073299
vt 0.913842 0.186984
vt 0.829030 0.188657
vt 0.789528 0.073847
vt 0.812413 0.026299
vt 0.856874 0.010346
vt 0.915341 0.072492
vt 0.685346 0.574420
vt 0.605588 0.689698
vt 0.609254 0.575283
vt 0.682264 0.511848
vt 0.693961 0.689423
vt 0.535457 0.075124
vt 0.457786 0.188460
vt 0.467026 0.070148
vt 0.536768 0.014940
vt 0.579777 0.029930
vt 0.593666 0.077928
vt 0.606155 0.194912
vt 0.537276 0.195179
vt 0.405313 0.071989
vt 0.385658 0.191527
vt 0.384916 0.819420
vt 0.461856 0.928654
vt 0.410821 0.938593
vt 0.479489 0.976902
vt 0.452537 0.996627
vt 0.425983 0.012272
vt 0.685478 0.075153
vt 0.756800 0.191215
vt 0.671957 0.192068
vt 0.632372 0.073548
vt 0.835384 0.635978
vt 0.699730 0.009735
vt 0.758281 0.075102
vt 0.525687 0.925845
vt 0.605213 0.808178
vt 0.601775 0.924226
vt 0.528917 0.990904
vt 0.516842 0.809272
vt 0.450487 0.398535
vt 0.375130 0.395351
vt 0.375130 0.615592
vt 0.442405 0.811410
vt 0.605213 0.893222
vt 0.697670 0.893064
vt 0.775464 0.891701
vt 0.076811 0.893289
vt 0.160019 0.895391
vt 0.224870 0.692748
vt 0.230865 0.895221
vt 0.533749 0.399171
vt 0.606155 0.397098
vt 0.000000 0.889405
vt 0.825969 0.685612
vt 0.835383 0.889215
vt 0.760238 0.395246
vt 0.671371 0.396291
vt 0.609598 0.191345
vt 0.605213 0.604102
vt 0.512759 0.605096
vt 0.434994 0.609001
vt 0.917321 0.390461
vt 0.828484 0.392344
vt 0.766748 0.190354
vt 0.964071 0.755952
vt 0.231348 0.954840
vt 0.910162 0.938340
vt 0.334112 0.616481
vt 0.375309 0.490431
vt 0.448957 0.502963
vt 0.375325 0.498448
vt 0.378601 0.512327
vt 0.437118 0.515580
vt 0.378331 0.520357
vt 0.773174 0.985187
vt 0.696857 0.994627
vt 0.696920 0.986730
vt 0.606345 0.986742
vt 0.228704 0.988659
vt 0.159395 0.998004
vt 0.159444 0.990025
vt 0.078008 0.998004
vt 0.077915 0.989861
vt 0.530700 0.494174
vt 0.601152 0.498339
vt 0.530443 0.502184
vt 0.449076 0.494843
vt 0.002908 0.992150
vt 0.002682 0.984161
vt 0.832008 0.983943
vt 0.772980 0.993069
vt 0.763107 0.488465
vt 0.676499 0.497491
vt 0.676101 0.489622
vt 0.612688 0.494891
vt 0.612180 0.487035
vt 0.513342 0.511668
vt 0.437297 0.507704
vt 0.513391 0.503790
vt 0.603915 0.510828
vt 0.920223 0.483922
vt 0.833649 0.493796
vt 0.833247 0.485907
vt 0.769408 0.485923
vt 0.083618 0.034455
vt 0.163248 0.028751
vt 0.094192 0.059700
vt 0.308463 0.060863
vt 0.236127 0.037253
vt 0.241629 0.009465
vt 0.000000 0.198989
vt 0.044706 0.123189
vt 0.019083 0.207494
vt 0.133443 0.555684
vt 0.211763 0.536403
vt 0.214505 0.565155
vt 0.021323 0.422110
vt 0.078972 0.481722
vt 0.066673 0.504280
vt 0.138948 0.527896
vt 0.000007 0.312235
vt 0.038236 0.407912
vt 0.375130 0.252908
vt 0.356044 0.357650
vt 0.356044 0.255926
vt 0.601541 0.490467
vt 0.606155 0.393865
vt 0.763349 0.392444
vt 0.160495 0.000000
vt 0.019089 0.309217
vt 0.028526 0.105136
vt 0.291455 0.530694
vt 0.280883 0.505448
vt 0.375130 0.366154
vt 0.330426 0.441954
vt 0.346610 0.460007
vt 0.336891 0.157232
vt 0.353807 0.143034
vt 0.296160 0.083421
vt 0.330502 0.756698
vt 0.230865 0.565600
vt 0.835384 0.953208
vt 0.939890 0.759844
vt 0.236255 0.826089
vt 0.357503 1.000000
vt 0.871232 0.741689
vt 1.000000 0.572191
vt 0.920468 0.000000
vt 0.615751 0.502963
vt 0.479311 0.000000
vt 0.763349 0.000000
vt 0.595444 0.999178
vt 0.606441 0.994627
vt 0.228522 0.996538
vt 0.831724 0.991930
vt 0.763349 0.496325
vt 0.603805 0.502963
vt 0.920468 0.491802
vt 0.769919 0.493804
vt 0.187505 0.282577
vn 0.6842 -0.5179 -0.5135
vn 0.5930 -0.3065 -0.7446
vn 0.7617 -0.3175 -0.5647
vn 0.5165 -0.7588 -0.3968
vn 0.0986 -0.8389 -0.5353
vn 0.2938 -0.7009 -0.6498
vn -0.0356 -0.7253 -0.6874
vn 0.0320 -0.5914 -0.8057
vn 0.3923 -0.4691 -0.7913
vn 0.8822 -0.3160 -0.3492
vn 0.8116 -0.5050 -0.2936
vn 0.2496 -0.1587 -0.9552
vn 0.5362 -0.2190 -0.8151
vn 0.3353 0.0129 -0.9420
vn 0.5431 0.0451 -0.8384
vn 0.7837 -0.2254 -0.5787
vn 0.7043 -0.6723 -0.2279
vn 0.5736 -0.6930 -0.4366
vn 0.9635 0.0255 -0.2664
vn 0.9329 -0.2337 -0.2739
vn 0.9987 -0.0169 -0.0472
vn 0.9818 -0.1876 0.0296
vn 0.8619 -0.4824 -0.1562
vn 0.4122 -0.6663 -0.6214
vn 0.5128 -0.4973 -0.6998
vn 0.7709 -0.6125 0.1747
vn 0.6957 -0.7095 -0.1120
vn 0.6371 -0.7440 0.2012
vn 0.5269 -0.8493 0.0316
vn -0.2413 -0.9053 -0.3496
vn -0.2974 -0.9348 0.1940
vn -0.5221 -0.8350 -0.1736
vn -0.6083 -0.6048 -0.5140
vn -0.3486 -0.6908 -0.6334
vn -0.0294 -0.9995 -0.0038
vn 0.2506 -0.9201 0.3011
vn 0.4947 -0.7242 0.4804
vn 0.0086 -0.8593 0.5114
vn -0.0871 0.0145 -0.9961
vn -0.4910 -0.0576 -0.8692
vn -0.3273 0.1916 -0.9253
vn 0.1247 0.2526 -0.9595
vn -0.2447 -0.2069 -0.9473
vn -0.3184 -0.4473 -0.8358
vn -0.5821 -0.3187 -0.7480
vn 0.4231 0.4181 -0.8038
vn 0.5460 0.7464 -0.3804
vn 0.7131 0.4813 -0.5097
vn -0.0739 0.4636 -0.8830
vn 0.2377 0.6803 -0.6933
vn 0.9071 0.3941 -0.1480
vn 0.7623 0.6471 -0.0042
vn 0.9632 0.2178 0.1574
vn 0.7086 -0.4860 0.5116
vn 0.7092 -0.1108 0.6962
vn 0.5608 -0.3684 0.7414
vn 0.8406 -0.2510 0.4800
vn 0.9344 -0.0307 0.3549
vn 0.8125 0.1384 0.5662
vn 0.4294 0.8544 -0.2926
vn 0.6484 0.7574 0.0763
vn 0.8497 0.4172 0.3223
vn -0.6088 0.0273 -0.7929
vn -0.7074 -0.2272 -0.6693
vn -0.7405 -0.5224 -0.4227
vn -0.4285 -0.8553 0.2913
vn -0.1249 -0.7861 0.6053
vn 0.3176 -0.6506 0.6898
vn 0.1961 -0.5687 0.7988
vn 0.1260 0.7855 -0.6058
vn -0.1959 0.5685 -0.7990
vn -0.6475 -0.7582 -0.0767
vn 0.6091 -0.0276 0.7926
vn 0.4548 -0.2807 0.8452
vn 0.7076 0.2271 0.6691
vn 0.7407 0.5222 0.4226
vn -0.4546 0.2806 -0.8453
vn 0.6072 0.7870 0.1092
vn -0.1589 0.9769 0.1426
vn 0.0099 0.9074 0.4200
vn 0.6991 0.5515 0.4551
vn -0.7790 -0.4891 -0.3923
vn -0.9731 0.1892 -0.1315
vn -0.7437 -0.1971 -0.6387
vn -0.6431 0.0544 -0.7638
vn 0.1559 -0.5353 0.8301
vn -0.5513 -0.2191 0.8050
vn -0.1648 -0.7528 0.6372
vn -0.7814 -0.2619 0.5663
vn -0.4679 -0.8235 0.3207
vn 0.0834 0.8132 -0.5759
vn -0.6088 0.7576 -0.2354
vn -0.3797 0.9198 -0.0988
vn 0.3886 0.8833 -0.2622
vn -0.9386 -0.1985 0.2821
vn -0.6871 -0.7249 -0.0489
vn -0.9990 -0.0255 0.0367
vn 0.5732 -0.0005 0.8194
vn -0.1435 0.1562 0.9772
vn 0.4165 -0.2513 0.8737
vn -0.3230 -0.0571 0.9446
vn 0.6691 0.2556 0.6978
vn 0.0739 0.7366 0.6723
vn 0.0409 0.5267 0.8490
vn -0.7921 0.5530 -0.2583
vn -0.4923 0.3085 -0.8139
vn -0.2374 0.5965 -0.7666
vn -0.6874 0.5137 0.5133
vn -0.6786 0.5126 0.5260
vn -0.6969 0.5130 0.5011
vn -0.6789 0.5166 0.5218
vn -0.6804 0.5194 0.5169
vn -0.6832 0.5220 0.5105
vn -0.6801 0.5167 0.5200
vn -0.6736 0.5209 0.5243
vn -0.0439 0.3468 0.9369
vn -0.6825 0.5157 0.5179
vn -0.9029 0.3766 -0.2071
vn -0.6903 0.5159 0.5072
vn -0.6902 0.5180 0.5052
vn -0.6804 0.5177 0.5186
vn -0.6936 0.5214 0.4971
vn -0.6916 0.5170 0.5044
vn -0.6886 0.5196 0.5058
vn -0.6929 0.5169 0.5027
vn 0.3116 -0.9162 -0.2517
vn 0.0858 -0.3641 -0.9274
vn 0.8056 0.0695 -0.5884
vn 0.9049 -0.3922 0.1653
vn -0.6856 0.5174 0.5120
usemtl Kiwi
s 1
f 57/1/1 75/2/2 79/3/3
f 24/4/4 44/5/5 1/6/6
f 1/6/6 72/7/7 37/8/8
f 37/8/8 21/9/9 1/6/6
f 57/10/1 76/11/10 80/12/11
f 21/13/9 38/14/12 2/15/13
f 2/15/13 73/16/14 39/17/15
f 39/17/15 22/18/16 2/15/13
f 57/19/1 77/20/17 81/21/18
f 22/22/16 40/23/19 3/24/20
f 3/24/20 71/25/21 41/26/22
f 41/26/22 23/27/23 3/24/20
f 57/28/1 74/29/24 78/30/25
f 23/31/23 42/32/26 4/33/27
f 4/33/27 70/34/28 43/35/29
f 43/35/29 24/36/4 4/33/27
f 5/37/30 58/38/31 25/39/32
f 5/40/30 67/41/33 46/42/34
f 5/40/30 72/43/7 44/44/5
f 44/5/5 26/45/35 5/46/30
f 6/47/36 58/38/31 26/48/35
f 26/49/35 43/35/29 6/50/36
f 6/50/36 70/34/28 48/51/37
f 48/52/37 27/53/38 6/47/36
f 7/54/39 59/55/40 28/56/41
f 28/56/41 47/57/42 7/54/39
f 7/54/39 73/58/14 38/59/12
f 38/59/12 29/60/43 7/54/39
f 8/61/44 59/62/40 29/63/43
f 29/63/43 37/64/8 8/61/44
f 8/61/44 72/43/7 46/42/34
f 46/42/34 30/65/45 8/61/44
f 9/66/46 60/67/47 33/68/48
f 33/68/48 39/69/15 9/66/46
f 9/66/46 73/70/14 47/71/42
f 9/66/46 68/72/49 31/73/50
f 10/74/51 60/67/47 32/75/52
f 32/76/52 45/77/53 10/78/51
f 10/78/51 71/79/21 40/80/19
f 40/81/19 33/68/48 10/74/51
f 11/82/54 61/83/55 36/84/56
f 36/84/56 48/85/37 11/82/54
f 11/86/54 70/34/28 42/32/26
f 42/87/26 34/88/57 11/82/54
f 12/89/58 61/90/55 34/91/57
f 34/91/57 41/92/22 12/89/58
f 12/89/58 71/79/21 45/77/53
f 45/77/53 35/93/59 12/89/58
f 32/75/52 50/94/60 13/95/61
f 13/96/61 66/97/62 32/76/52
f 49/98/63 30/65/45 14/99/64
f 14/99/64 67/41/33 55/100/65
f 54/101/66 27/53/38 15/102/67
f 15/102/67 69/103/68 51/104/69
f 50/94/60 31/73/50 16/105/70
f 31/73/50 56/106/71 16/105/70
f 25/39/32 54/101/66 17/107/72
f 55/100/65 25/108/32 17/109/72
f 36/84/56 52/110/73 18/111/74
f 18/111/74 69/112/68 36/84/56
f 52/113/73 35/93/59 19/114/75
f 19/114/75 66/97/62 53/115/76
f 28/56/41 49/116/63 20/117/77
f 20/117/77 68/118/49 28/56/41
f 23/31/23 77/20/17 80/119/11
f 24/36/4 77/20/17 4/33/27
f 22/22/16 76/11/10 79/120/3
f 23/27/23 76/11/10 3/24/20
f 21/13/9 75/2/2 78/121/25
f 22/18/16 75/2/2 2/15/13
f 24/4/4 74/29/24 81/122/18
f 21/9/9 74/29/24 1/6/6
f 103/123/78 91/124/79 82/125/80
f 82/126/80 100/127/81 103/128/78
f 101/129/82 83/130/83 104/131/84
f 83/130/83 111/132/85 104/131/84
f 99/133/86 84/134/87 105/135/88
f 105/135/88 95/136/89 114/137/90
f 106/138/91 97/139/92 85/140/93
f 85/140/93 112/141/94 106/138/91
f 114/137/90 86/142/95 107/143/96
f 107/144/96 96/145/97 101/129/82
f 113/146/98 87/147/99 108/148/100
f 108/148/100 92/149/101 99/150/86
f 109/151/102 94/152/103 88/153/104
f 88/153/104 113/154/98 109/151/102
f 111/155/85 89/156/105 110/157/106
f 89/156/105 102/158/107 110/157/106
f 82/159/80 126/160/108 98/161/109
f 97/162/92 120/163/110 85/164/93
f 88/165/104 123/166/111 117/167/112
f 84/168/87 130/169/113 95/170/89
f 87/171/99 125/172/114 92/173/101
f 92/173/101 121/174/115 84/168/87
f 93/175/116 118/176/117 87/171/99
f 90/177/118 122/178/119 115/179/120
f 13/95/61 112/141/94 103/123/78
f 103/128/78 53/115/76 13/96/61
f 55/100/65 104/131/84 14/99/64
f 104/131/84 49/98/63 14/99/64
f 51/104/69 105/135/88 15/102/67
f 15/102/67 114/137/90 54/101/66
f 16/105/70 102/180/107 106/138/91
f 106/138/91 50/94/60 16/105/70
f 54/101/66 107/143/96 17/107/72
f 17/109/72 101/129/82 55/100/65
f 52/110/73 108/148/100 18/111/74
f 18/111/74 99/150/86 51/181/69
f 19/114/75 100/127/81 109/151/102
f 109/151/102 52/113/73 19/114/75
f 49/116/63 110/157/106 20/117/77
f 110/157/106 56/182/71 20/117/77
f 85/164/93 126/160/108 91/183/79
f 93/175/116 117/167/112 124/184/121
f 94/185/103 98/161/109 123/166/111
f 86/186/95 130/169/113 119/187/122
f 83/188/83 129/189/123 122/178/119
f 96/190/97 119/187/122 129/189/123
f 90/177/118 116/191/124 89/192/105
f 89/192/105 128/193/125 97/162/92
f 57/1/1 78/121/25 75/2/2
f 24/4/4 65/194/126 44/5/5
f 1/6/6 44/5/5 72/7/7
f 37/8/8 62/195/127 21/9/9
f 57/10/1 79/120/3 76/11/10
f 21/13/9 62/196/127 38/14/12
f 2/15/13 38/14/12 73/16/14
f 39/17/15 63/197/128 22/18/16
f 57/19/1 80/119/11 77/20/17
f 22/22/16 63/198/128 40/23/19
f 3/24/20 40/23/19 71/25/21
f 41/26/22 64/199/129 23/27/23
f 57/28/1 81/122/18 74/29/24
f 23/31/23 64/200/129 42/32/26
f 4/33/27 42/32/26 70/34/28
f 43/35/29 65/201/126 24/36/4
f 5/37/30 26/48/35 58/38/31
f 5/40/30 25/108/32 67/41/33
f 5/40/30 46/42/34 72/43/7
f 44/5/5 65/194/126 26/45/35
f 6/47/36 27/53/38 58/38/31
f 26/49/35 65/201/126 43/35/29
f 6/50/36 43/35/29 70/34/28
f 48/52/37 69/103/68 27/53/38
f 7/54/39 29/60/43 59/55/40
f 28/56/41 68/118/49 47/57/42
f 7/54/39 47/57/42 73/58/14
f 38/59/12 62/202/127 29/60/43
f 8/61/44 30/65/45 59/62/40
f 29/63/43 62/203/127 37/64/8
f 8/61/44 37/64/8 72/43/7
f 46/42/34 67/41/33 30/65/45
f 9/66/46 31/73/50 60/67/47
f 33/68/48 63/204/128 39/69/15
f 9/66/46 39/69/15 73/70/14
f 9/66/46 47/71/42 68/72/49
f 10/74/51 33/68/48 60/67/47
f 32/76/52 66/97/62 45/77/53
f 10/78/51 45/77/53 71/79/21
f 40/81/19 63/204/128 33/68/48
f 11/82/54 34/88/57 61/83/55
f 36/84/56 69/112/68 48/85/37
f 11/86/54 48/51/37 70/34/28
f 42/87/26 64/205/129 34/88/57
f 12/89/58 35/93/59 61/90/55
f 34/91/57 64/206/129 41/92/22
f 12/89/58 41/92/22 71/79/21
f 45/77/53 66/97/62 35/93/59
f 32/75/52 60/67/47 50/94/60
f 13/96/61 53/115/76 66/97/62
f 49/98/63 59/62/40 30/65/45
f 14/99/64 30/65/45 67/41/33
f 54/101/66 58/38/31 27/53/38
f 15/102/67 27/53/38 69/103/68
f 50/94/60 60/67/47 31/73/50
f 31/73/50 68/72/49 56/106/71
f 25/39/32 58/38/31 54/101/66
f 55/100/65 67/41/33 25/108/32
f 36/84/56 61/83/55 52/110/73
f 18/111/74 51/181/69 69/112/68
f 52/113/73 61/90/55 35/93/59
f 19/114/75 35/93/59 66/97/62
f 28/56/41 59/55/40 49/116/63
f 20/117/77 56/182/71 68/118/49
f 23/31/23 4/33/27 77/20/17
f 24/36/4 81/21/18 77/20/17
f 22/22/16 3/24/20 76/11/10
f 23/27/23 80/12/11 76/11/10
f 21/13/9 2/15/13 75/2/2
f 22/18/16 79/3/3 75/2/2
f 24/4/4 1/6/6 74/29/24
f 21/9/9 78/30/25 74/29/24
f 103/123/78 112/141/94 91/124/79
f 82/126/80 94/152/103 100/127/81
f 101/129/82 96/145/97 83/130/83
f 83/130/83 90/207/118 111/132/85
f 99/133/86 92/208/101 84/134/87
f 105/135/88 84/134/87 95/136/89
f 106/138/91 102/180/107 97/139/92
f 85/140/93 91/124/79 112/141/94
f 114/137/90 95/136/89 86/142/95
f 107/144/96 86/209/95 96/145/97
f 113/146/98 93/210/116 87/147/99
f 108/148/100 87/147/99 92/149/101
f 109/151/102 100/127/81 94/152/103
f 88/153/104 93/211/116 113/154/98
f 111/155/85 90/212/118 89/156/105
f 89/156/105 97/213/92 102/158/107
f 82/159/80 91/183/79 126/160/108
f 97/162/92 128/193/125 120/163/110
f 88/165/104 94/185/103 123/166/111
f 84/168/87 121/174/115 130/169/113
f 87/171/99 118/176/117 125/172/114
f 92/173/101 125/172/114 121/174/115
f 93/175/116 124/184/121 118/176/117
f 90/177/118 83/188/83 122/178/119
f 13/95/61 50/94/60 112/141/94
f 103/128/78 100/127/81 53/115/76
f 55/100/65 101/129/82 104/131/84
f 104/131/84 111/132/85 49/98/63
f 51/104/69 99/133/86 105/135/88
f 15/102/67 105/135/88 114/137/90
f 16/105/70 56/106/71 102/180/107
f 106/138/91 112/141/94 50/94/60
f 54/101/66 114/137/90 107/143/96
f 17/109/72 107/144/96 101/129/82
f 52/110/73 113/146/98 108/148/100
f 18/111/74 108/148/100 99/150/86
f 19/114/75 53/115/76 100/127/81
f 109/151/102 113/154/98 52/113/73
f 49/116/63 111/155/85 110/157/106
f 110/157/106 102/158/107 56/182/71
f 85/164/93 120/163/110 126/160/108
f 93/175/116 88/165/104 117/167/112
f 94/185/103 82/159/80 98/161/109
f 86/186/95 95/170/89 130/169/113
f 83/188/83 96/190/97 129/189/123
f 96/190/97 86/186/95 119/187/122
f 90/177/118 115/179/120 116/191/124
f 89/192/105 116/191/124 128/193/125
usemtl Kiwi_NONE
f 121/174/115 127/214/130 130/169/113
f 120/163/110 127/214/130 126/160/108
f 117/167/112 127/214/130 124/184/121
f 119/187/122 127/214/130 129/189/123
f 118/176/117 127/214/130 125/172/114
f 98/161/109 127/214/130 123/166/111
f 116/191/124 127/214/130 128/193/125
f 122/178/119 127/214/130 115/179/120
f 121/174/115 125/172/114 127/214/130
f 120/163/110 128/193/125 127/214/130
f 117/167/112 123/166/111 127/214/130
f 119/187/122 130/169/113 127/214/130
f 118/176/117 124/184/121 127/214/130
f 98/161/109 126/160/108 127/214/130
f 116/191/124 115/179/120 127/214/130
f 122/178/119 129/189/123 127/214/130
