# Blender v2.79 (sub 0) OBJ File: 'targetFBS.blend'
# www.blender.org
mtllib targetFBS.mtl
o 平面
v -1.000000 0.000000 1.000000
v 1.000000 0.000000 1.000000
v -1.000000 0.000000 -1.000000
v 1.000000 0.000000 -1.000000
v -1.000000 0.063330 1.000000
v 1.000000 0.063330 1.000000
v -1.000000 0.063330 -1.000000
v 1.000000 0.063330 -1.000000
vt 0.095448 0.137745
vt 0.095448 0.024742
vt 0.889670 0.024742
vt 0.889670 0.137745
vt 0.095448 0.162894
vt 0.889670 0.162894
vt 0.889670 0.957116
vt 0.095448 0.957116
vt 0.914819 0.162894
vt 0.914819 0.957116
vt 0.070299 0.957116
vt 0.070299 0.162894
vt 0.889670 0.982266
vt 0.095448 0.982266
vn 0.0000 -1.0000 0.0000
vn 0.0000 1.0000 0.0000
vn 1.0000 0.0000 0.0000
vn -1.0000 0.0000 0.0000
vn 0.0000 0.0000 -1.0000
vn 0.0000 0.0000 1.0000
usemtl mat
s off
f 1/1/1 3/2/1 4/3/1 2/4/1
f 5/5/2 6/6/2 8/7/2 7/8/2
f 2/9/3 4/10/3 8/7/3 6/6/3
f 3/11/4 1/12/4 5/5/4 7/8/4
f 4/13/5 3/14/5 7/8/5 8/7/5
f 1/1/6 2/4/6 6/6/6 5/5/6
